<mxfile host="app.diagrams.net" modified="2023-07-21T14:43:23.961Z" agent="Mozilla/5.0 (Windows NT 10.0; Win64; x64) AppleWebKit/537.36 (KHTML, like Gecko) Chrome/114.0.0.0 Safari/537.36" version="21.6.3" etag="G1a9EO0Pax-ZH0qoZgoe" type="github">
  <diagram name="Page-1" id="hC0FE7eFfn5yVg-XPNz6">
    <mxGraphModel>
      <root>
        <mxCell id="0" />
        <mxCell id="1" parent="0" />
      </root>
    </mxGraphModel>
  </diagram>
</mxfile>
